<mxfile host="app.diagrams.net" modified="2022-12-02T16:29:27.897Z" agent="5.0 (Windows NT 10.0; Win64; x64) AppleWebKit/537.36 (KHTML, like Gecko) Chrome/107.0.0.0 Safari/537.36" version="20.6.0" etag="a2VICVTros9DIrMDHxnE" type="github">
  <diagram id="9YgohMKxcg0htrfyOoFv" name="Page-1">
    <mxGraphModel dx="1447" dy="1850" grid="1" gridSize="10" guides="1" tooltips="1" connect="1" arrows="1" fold="1" page="1" pageScale="1" pageWidth="850" pageHeight="1100" math="0" shadow="0">
      <root>
        <mxCell id="0" />
        <mxCell id="1" parent="0" />
        <mxCell id="z4Ejk7xejOlDcouXCEWY-1" value="Finance" style="shape=umlActor;verticalLabelPosition=bottom;verticalAlign=top;html=1;outlineConnect=0;" vertex="1" parent="1">
          <mxGeometry x="140" y="80" width="30" height="60" as="geometry" />
        </mxCell>
        <mxCell id="z4Ejk7xejOlDcouXCEWY-2" value="Cashier" style="shape=umlActor;verticalLabelPosition=bottom;verticalAlign=top;html=1;outlineConnect=0;" vertex="1" parent="1">
          <mxGeometry x="140" y="180" width="30" height="60" as="geometry" />
        </mxCell>
        <mxCell id="z4Ejk7xejOlDcouXCEWY-3" value="System administrator" style="shape=umlActor;verticalLabelPosition=bottom;verticalAlign=top;html=1;outlineConnect=0;" vertex="1" parent="1">
          <mxGeometry x="140" y="280" width="30" height="60" as="geometry" />
        </mxCell>
        <mxCell id="z4Ejk7xejOlDcouXCEWY-4" value="Login" style="ellipse;whiteSpace=wrap;html=1;" vertex="1" parent="1">
          <mxGeometry x="340" y="-10" width="120" height="60" as="geometry" />
        </mxCell>
        <mxCell id="z4Ejk7xejOlDcouXCEWY-5" value="Mange customers" style="ellipse;whiteSpace=wrap;html=1;" vertex="1" parent="1">
          <mxGeometry x="340" y="60" width="120" height="60" as="geometry" />
        </mxCell>
        <mxCell id="z4Ejk7xejOlDcouXCEWY-6" value="Mange top-ups" style="ellipse;whiteSpace=wrap;html=1;" vertex="1" parent="1">
          <mxGeometry x="340" y="130" width="120" height="60" as="geometry" />
        </mxCell>
        <mxCell id="z4Ejk7xejOlDcouXCEWY-7" value="Mange top-up bundles" style="ellipse;whiteSpace=wrap;html=1;" vertex="1" parent="1">
          <mxGeometry x="340" y="200" width="120" height="60" as="geometry" />
        </mxCell>
        <mxCell id="z4Ejk7xejOlDcouXCEWY-8" value="Mange products" style="ellipse;whiteSpace=wrap;html=1;" vertex="1" parent="1">
          <mxGeometry x="340" y="270" width="120" height="60" as="geometry" />
        </mxCell>
        <mxCell id="z4Ejk7xejOlDcouXCEWY-9" value="Mange product categories" style="ellipse;whiteSpace=wrap;html=1;" vertex="1" parent="1">
          <mxGeometry x="340" y="340" width="120" height="60" as="geometry" />
        </mxCell>
        <mxCell id="z4Ejk7xejOlDcouXCEWY-10" value="Mange reports" style="ellipse;whiteSpace=wrap;html=1;" vertex="1" parent="1">
          <mxGeometry x="340" y="410" width="120" height="60" as="geometry" />
        </mxCell>
        <mxCell id="z4Ejk7xejOlDcouXCEWY-11" value="POS portal" style="ellipse;whiteSpace=wrap;html=1;" vertex="1" parent="1">
          <mxGeometry x="340" y="480" width="120" height="60" as="geometry" />
        </mxCell>
        <mxCell id="z4Ejk7xejOlDcouXCEWY-12" value="Manage users" style="ellipse;whiteSpace=wrap;html=1;" vertex="1" parent="1">
          <mxGeometry x="340" y="550" width="120" height="60" as="geometry" />
        </mxCell>
        <mxCell id="z4Ejk7xejOlDcouXCEWY-13" value="Authentication" style="ellipse;whiteSpace=wrap;html=1;" vertex="1" parent="1">
          <mxGeometry x="890" y="-10" width="120" height="60" as="geometry" />
        </mxCell>
        <mxCell id="z4Ejk7xejOlDcouXCEWY-14" value="Add customer" style="ellipse;whiteSpace=wrap;html=1;" vertex="1" parent="1">
          <mxGeometry x="680" y="-210" width="120" height="40" as="geometry" />
        </mxCell>
        <mxCell id="z4Ejk7xejOlDcouXCEWY-15" value="include" style="endArrow=open;endSize=12;dashed=1;html=1;rounded=0;exitX=1;exitY=0.5;exitDx=0;exitDy=0;entryX=0;entryY=0.5;entryDx=0;entryDy=0;" edge="1" parent="1" source="z4Ejk7xejOlDcouXCEWY-4" target="z4Ejk7xejOlDcouXCEWY-13">
          <mxGeometry x="-0.8182" width="160" relative="1" as="geometry">
            <mxPoint x="430" y="130" as="sourcePoint" />
            <mxPoint x="590" y="130" as="targetPoint" />
            <mxPoint as="offset" />
          </mxGeometry>
        </mxCell>
        <mxCell id="z4Ejk7xejOlDcouXCEWY-21" value="include" style="endArrow=open;endSize=12;dashed=1;html=1;rounded=0;exitX=1;exitY=0.5;exitDx=0;exitDy=0;" edge="1" parent="1" source="z4Ejk7xejOlDcouXCEWY-5">
          <mxGeometry x="-0.7656" width="160" relative="1" as="geometry">
            <mxPoint x="470.0000000000018" y="30" as="sourcePoint" />
            <mxPoint x="890" y="20" as="targetPoint" />
            <Array as="points">
              <mxPoint x="560" y="90" />
              <mxPoint x="610" y="20" />
            </Array>
            <mxPoint as="offset" />
          </mxGeometry>
        </mxCell>
        <mxCell id="z4Ejk7xejOlDcouXCEWY-22" value="include" style="endArrow=open;endSize=12;dashed=1;html=1;rounded=0;exitX=1;exitY=0.5;exitDx=0;exitDy=0;entryX=0;entryY=0.5;entryDx=0;entryDy=0;" edge="1" parent="1" source="z4Ejk7xejOlDcouXCEWY-6" target="z4Ejk7xejOlDcouXCEWY-13">
          <mxGeometry x="-0.8079" width="160" relative="1" as="geometry">
            <mxPoint x="470.0000000000018" y="100" as="sourcePoint" />
            <mxPoint x="690" y="30" as="targetPoint" />
            <Array as="points">
              <mxPoint x="550" y="160" />
              <mxPoint x="610" y="20" />
            </Array>
            <mxPoint as="offset" />
          </mxGeometry>
        </mxCell>
        <mxCell id="z4Ejk7xejOlDcouXCEWY-23" value="include" style="endArrow=open;endSize=12;dashed=1;html=1;rounded=0;exitX=1;exitY=0.5;exitDx=0;exitDy=0;entryX=0;entryY=0.5;entryDx=0;entryDy=0;" edge="1" parent="1" source="z4Ejk7xejOlDcouXCEWY-7" target="z4Ejk7xejOlDcouXCEWY-13">
          <mxGeometry x="-0.8445" width="160" relative="1" as="geometry">
            <mxPoint x="470.0000000000018" y="170" as="sourcePoint" />
            <mxPoint x="700" y="40" as="targetPoint" />
            <Array as="points">
              <mxPoint x="550" y="230" />
              <mxPoint x="610" y="20" />
            </Array>
            <mxPoint as="offset" />
          </mxGeometry>
        </mxCell>
        <mxCell id="z4Ejk7xejOlDcouXCEWY-24" value="include" style="endArrow=open;endSize=12;dashed=1;html=1;rounded=0;exitX=1;exitY=0.5;exitDx=0;exitDy=0;" edge="1" parent="1" source="z4Ejk7xejOlDcouXCEWY-8">
          <mxGeometry x="-0.8632" width="160" relative="1" as="geometry">
            <mxPoint x="470.0000000000018" y="240" as="sourcePoint" />
            <mxPoint x="890" y="20" as="targetPoint" />
            <Array as="points">
              <mxPoint x="540" y="300" />
              <mxPoint x="610" y="20" />
            </Array>
            <mxPoint as="offset" />
          </mxGeometry>
        </mxCell>
        <mxCell id="z4Ejk7xejOlDcouXCEWY-25" value="include" style="endArrow=open;endSize=12;dashed=1;html=1;rounded=0;exitX=1;exitY=0.5;exitDx=0;exitDy=0;entryX=0;entryY=0.5;entryDx=0;entryDy=0;" edge="1" parent="1" source="z4Ejk7xejOlDcouXCEWY-9" target="z4Ejk7xejOlDcouXCEWY-13">
          <mxGeometry x="-0.8816" width="160" relative="1" as="geometry">
            <mxPoint x="470.0000000000018" y="310" as="sourcePoint" />
            <mxPoint x="720" y="60" as="targetPoint" />
            <Array as="points">
              <mxPoint x="540" y="370" />
              <mxPoint x="610" y="20" />
            </Array>
            <mxPoint as="offset" />
          </mxGeometry>
        </mxCell>
        <mxCell id="z4Ejk7xejOlDcouXCEWY-26" value="include" style="endArrow=open;endSize=12;dashed=1;html=1;rounded=0;exitX=1;exitY=0.5;exitDx=0;exitDy=0;" edge="1" parent="1">
          <mxGeometry x="-0.8631" width="160" relative="1" as="geometry">
            <mxPoint x="460" y="440" as="sourcePoint" />
            <mxPoint x="890" y="20" as="targetPoint" />
            <Array as="points">
              <mxPoint x="550" y="440" />
              <mxPoint x="610" y="20" />
            </Array>
            <mxPoint as="offset" />
          </mxGeometry>
        </mxCell>
        <mxCell id="z4Ejk7xejOlDcouXCEWY-27" value="include" style="endArrow=open;endSize=12;dashed=1;html=1;rounded=0;exitX=1;exitY=0.5;exitDx=0;exitDy=0;" edge="1" parent="1" source="z4Ejk7xejOlDcouXCEWY-11">
          <mxGeometry x="-0.8491" width="160" relative="1" as="geometry">
            <mxPoint x="470.0000000000018" y="449.9999999999998" as="sourcePoint" />
            <mxPoint x="890" y="20" as="targetPoint" />
            <Array as="points">
              <mxPoint x="560" y="510" />
              <mxPoint x="610" y="20" />
            </Array>
            <mxPoint as="offset" />
          </mxGeometry>
        </mxCell>
        <mxCell id="z4Ejk7xejOlDcouXCEWY-28" value="include" style="endArrow=open;endSize=12;dashed=1;html=1;rounded=0;exitX=1;exitY=0.5;exitDx=0;exitDy=0;" edge="1" parent="1" source="z4Ejk7xejOlDcouXCEWY-12">
          <mxGeometry x="-0.9139" width="160" relative="1" as="geometry">
            <mxPoint x="470.0000000000018" y="520.0000000000002" as="sourcePoint" />
            <mxPoint x="890" y="20" as="targetPoint" />
            <Array as="points">
              <mxPoint x="520" y="580" />
              <mxPoint x="570" y="580" />
              <mxPoint x="570" y="570" />
              <mxPoint x="610" y="20" />
            </Array>
            <mxPoint as="offset" />
          </mxGeometry>
        </mxCell>
        <mxCell id="z4Ejk7xejOlDcouXCEWY-30" value="Edit customer" style="ellipse;whiteSpace=wrap;html=1;" vertex="1" parent="1">
          <mxGeometry x="680" y="-160" width="120" height="40" as="geometry" />
        </mxCell>
        <mxCell id="z4Ejk7xejOlDcouXCEWY-31" value="view customer" style="ellipse;whiteSpace=wrap;html=1;" vertex="1" parent="1">
          <mxGeometry x="680" y="-110" width="120" height="40" as="geometry" />
        </mxCell>
        <mxCell id="z4Ejk7xejOlDcouXCEWY-32" value="Add Top-up" style="ellipse;whiteSpace=wrap;html=1;" vertex="1" parent="1">
          <mxGeometry x="700" y="250" width="120" height="40" as="geometry" />
        </mxCell>
        <mxCell id="z4Ejk7xejOlDcouXCEWY-33" value="Add Card to cutomer" style="ellipse;whiteSpace=wrap;html=1;" vertex="1" parent="1">
          <mxGeometry x="700" y="200" width="120" height="40" as="geometry" />
        </mxCell>
        <mxCell id="z4Ejk7xejOlDcouXCEWY-34" value="View Top-up" style="ellipse;whiteSpace=wrap;html=1;" vertex="1" parent="1">
          <mxGeometry x="700" y="300" width="120" height="40" as="geometry" />
        </mxCell>
        <mxCell id="z4Ejk7xejOlDcouXCEWY-37" value="Extends" style="endArrow=block;endSize=16;endFill=0;html=1;rounded=0;exitX=0;exitY=0.5;exitDx=0;exitDy=0;entryX=1;entryY=0;entryDx=0;entryDy=0;" edge="1" parent="1" source="z4Ejk7xejOlDcouXCEWY-14" target="z4Ejk7xejOlDcouXCEWY-5">
          <mxGeometry x="-0.7674" width="160" relative="1" as="geometry">
            <mxPoint x="420" y="200" as="sourcePoint" />
            <mxPoint x="580" y="200" as="targetPoint" />
            <Array as="points">
              <mxPoint x="620" y="-140" />
              <mxPoint x="520" y="60" />
            </Array>
            <mxPoint as="offset" />
          </mxGeometry>
        </mxCell>
        <mxCell id="z4Ejk7xejOlDcouXCEWY-40" value="Extends" style="endArrow=block;endSize=16;endFill=0;html=1;rounded=0;exitX=0;exitY=0.5;exitDx=0;exitDy=0;entryX=1;entryY=0;entryDx=0;entryDy=0;" edge="1" parent="1" source="z4Ejk7xejOlDcouXCEWY-30" target="z4Ejk7xejOlDcouXCEWY-5">
          <mxGeometry x="-0.7785" width="160" relative="1" as="geometry">
            <mxPoint x="710" y="80" as="sourcePoint" />
            <mxPoint x="460" y="90" as="targetPoint" />
            <Array as="points">
              <mxPoint x="620" y="-90" />
              <mxPoint x="520" y="60" />
            </Array>
            <mxPoint as="offset" />
          </mxGeometry>
        </mxCell>
        <mxCell id="z4Ejk7xejOlDcouXCEWY-41" value="Extends" style="endArrow=block;endSize=16;endFill=0;html=1;rounded=0;exitX=0;exitY=0.5;exitDx=0;exitDy=0;entryX=1;entryY=0;entryDx=0;entryDy=0;" edge="1" parent="1" source="z4Ejk7xejOlDcouXCEWY-31" target="z4Ejk7xejOlDcouXCEWY-5">
          <mxGeometry x="-0.7785" width="160" relative="1" as="geometry">
            <mxPoint x="710" y="130" as="sourcePoint" />
            <mxPoint x="440" y="70" as="targetPoint" />
            <Array as="points">
              <mxPoint x="620" y="-40" />
              <mxPoint x="520" y="60" />
            </Array>
            <mxPoint as="offset" />
          </mxGeometry>
        </mxCell>
        <mxCell id="z4Ejk7xejOlDcouXCEWY-44" value="Extends" style="endArrow=block;endSize=16;endFill=0;html=1;rounded=0;exitX=0;exitY=0.5;exitDx=0;exitDy=0;entryX=1;entryY=0;entryDx=0;entryDy=0;" edge="1" parent="1" source="z4Ejk7xejOlDcouXCEWY-33" target="z4Ejk7xejOlDcouXCEWY-6">
          <mxGeometry x="-0.7917" width="160" relative="1" as="geometry">
            <mxPoint x="500" y="260" as="sourcePoint" />
            <mxPoint x="460" y="130" as="targetPoint" />
            <Array as="points">
              <mxPoint x="640" y="220" />
              <mxPoint x="520" y="130" />
            </Array>
            <mxPoint as="offset" />
          </mxGeometry>
        </mxCell>
        <mxCell id="z4Ejk7xejOlDcouXCEWY-46" value="Extends" style="endArrow=block;endSize=16;endFill=0;html=1;rounded=0;exitX=0;exitY=0.5;exitDx=0;exitDy=0;entryX=1;entryY=0;entryDx=0;entryDy=0;" edge="1" parent="1" source="z4Ejk7xejOlDcouXCEWY-32" target="z4Ejk7xejOlDcouXCEWY-6">
          <mxGeometry x="-0.8138" width="160" relative="1" as="geometry">
            <mxPoint x="480" y="270" as="sourcePoint" />
            <mxPoint x="450" y="140" as="targetPoint" />
            <Array as="points">
              <mxPoint x="640" y="270" />
              <mxPoint x="520" y="130" />
            </Array>
            <mxPoint as="offset" />
          </mxGeometry>
        </mxCell>
        <mxCell id="z4Ejk7xejOlDcouXCEWY-47" value="Extends" style="endArrow=block;endSize=16;endFill=0;html=1;rounded=0;exitX=0;exitY=0.5;exitDx=0;exitDy=0;entryX=1;entryY=0;entryDx=0;entryDy=0;" edge="1" parent="1" source="z4Ejk7xejOlDcouXCEWY-34" target="z4Ejk7xejOlDcouXCEWY-6">
          <mxGeometry x="-0.8345" width="160" relative="1" as="geometry">
            <mxPoint x="710" y="280" as="sourcePoint" />
            <mxPoint x="460" y="150" as="targetPoint" />
            <Array as="points">
              <mxPoint x="640" y="320" />
              <mxPoint x="520" y="130" />
            </Array>
            <mxPoint as="offset" />
          </mxGeometry>
        </mxCell>
        <mxCell id="z4Ejk7xejOlDcouXCEWY-48" value="Add product" style="ellipse;whiteSpace=wrap;html=1;" vertex="1" parent="1">
          <mxGeometry x="700" y="350" width="120" height="40" as="geometry" />
        </mxCell>
        <mxCell id="z4Ejk7xejOlDcouXCEWY-49" value="Edit product" style="ellipse;whiteSpace=wrap;html=1;" vertex="1" parent="1">
          <mxGeometry x="700" y="400" width="120" height="40" as="geometry" />
        </mxCell>
        <mxCell id="z4Ejk7xejOlDcouXCEWY-50" value="Delete product" style="ellipse;whiteSpace=wrap;html=1;" vertex="1" parent="1">
          <mxGeometry x="700" y="500" width="120" height="40" as="geometry" />
        </mxCell>
        <mxCell id="z4Ejk7xejOlDcouXCEWY-51" value="View product" style="ellipse;whiteSpace=wrap;html=1;" vertex="1" parent="1">
          <mxGeometry x="700" y="450" width="120" height="40" as="geometry" />
        </mxCell>
        <mxCell id="z4Ejk7xejOlDcouXCEWY-52" value="Extends" style="endArrow=block;endSize=16;endFill=0;html=1;rounded=0;entryX=1;entryY=0;entryDx=0;entryDy=0;exitX=0;exitY=0.5;exitDx=0;exitDy=0;" edge="1" parent="1" source="z4Ejk7xejOlDcouXCEWY-48" target="z4Ejk7xejOlDcouXCEWY-7">
          <mxGeometry x="-0.8315" width="160" relative="1" as="geometry">
            <mxPoint x="500" y="310" as="sourcePoint" />
            <mxPoint x="660" y="310" as="targetPoint" />
            <Array as="points">
              <mxPoint x="640" y="370" />
              <mxPoint x="520" y="190" />
            </Array>
            <mxPoint as="offset" />
          </mxGeometry>
        </mxCell>
        <mxCell id="z4Ejk7xejOlDcouXCEWY-53" value="Extends" style="endArrow=block;endSize=16;endFill=0;html=1;rounded=0;entryX=1;entryY=0;entryDx=0;entryDy=0;exitX=0;exitY=0.5;exitDx=0;exitDy=0;" edge="1" parent="1" source="z4Ejk7xejOlDcouXCEWY-49" target="z4Ejk7xejOlDcouXCEWY-7">
          <mxGeometry x="-0.8497" width="160" relative="1" as="geometry">
            <mxPoint x="710" y="380" as="sourcePoint" />
            <mxPoint x="452.8443703486746" y="218.99785767221806" as="targetPoint" />
            <Array as="points">
              <mxPoint x="640" y="420" />
              <mxPoint x="520" y="190" />
            </Array>
            <mxPoint as="offset" />
          </mxGeometry>
        </mxCell>
        <mxCell id="z4Ejk7xejOlDcouXCEWY-54" value="Extends" style="endArrow=block;endSize=16;endFill=0;html=1;rounded=0;entryX=1;entryY=0;entryDx=0;entryDy=0;exitX=0;exitY=0.5;exitDx=0;exitDy=0;" edge="1" parent="1" source="z4Ejk7xejOlDcouXCEWY-51" target="z4Ejk7xejOlDcouXCEWY-7">
          <mxGeometry x="-0.865" width="160" relative="1" as="geometry">
            <mxPoint x="710" y="430" as="sourcePoint" />
            <mxPoint x="462.8443703486746" y="228.99785767221806" as="targetPoint" />
            <Array as="points">
              <mxPoint x="640" y="470" />
              <mxPoint x="520" y="190" />
            </Array>
            <mxPoint as="offset" />
          </mxGeometry>
        </mxCell>
        <mxCell id="z4Ejk7xejOlDcouXCEWY-55" value="Extends" style="endArrow=block;endSize=16;endFill=0;html=1;rounded=0;exitX=0;exitY=0.5;exitDx=0;exitDy=0;entryX=1;entryY=0;entryDx=0;entryDy=0;" edge="1" parent="1" source="z4Ejk7xejOlDcouXCEWY-50" target="z4Ejk7xejOlDcouXCEWY-7">
          <mxGeometry x="-0.8778" width="160" relative="1" as="geometry">
            <mxPoint x="710" y="480" as="sourcePoint" />
            <mxPoint x="450" y="220" as="targetPoint" />
            <Array as="points">
              <mxPoint x="640" y="520" />
              <mxPoint x="520" y="190" />
            </Array>
            <mxPoint as="offset" />
          </mxGeometry>
        </mxCell>
      </root>
    </mxGraphModel>
  </diagram>
</mxfile>
